<svg width="194" height="46" viewBox="0 0 194 46" fill="none" xmlns="http://www.w3.org/2000/svg">
<g clip-path="url(#clip0)">
<path d="M144.174 35.4803C142.043 35.4803 140.315 34.1063 140.315 32.4097V20.4566C140.315 18.7665 142.043 17.386 144.174 17.386H148.736V11.6836H151.558V35.4803H144.174ZM145.477 19.1793C144.888 19.1475 144.309 19.3471 143.868 19.7348C143.426 20.1224 143.157 20.6669 143.118 21.25V31.6098C143.158 32.1918 143.428 32.7346 143.87 33.1209C144.311 33.5072 144.889 33.7059 145.477 33.6741H148.736V19.1664L145.477 19.1793Z" fill="white"/>
<path d="M182.777 42.208V17.418H190.142C192.267 17.418 194 18.792 194 20.4821V32.4094C194 34.106 192.267 35.4799 190.142 35.4799H185.58V42.208H182.777ZM185.599 33.6996H188.819C189.408 33.7331 189.986 33.535 190.428 33.1484C190.87 32.7617 191.14 32.2179 191.178 31.6353V21.2368C191.141 20.6531 190.873 20.1076 190.43 19.7196C189.988 19.3316 189.409 19.1326 188.819 19.1661H185.599V33.6996Z" fill="white"/>
<path d="M170.7 35.481C168.634 35.4358 166.959 34.0618 166.959 32.4169V20.4573C166.959 18.7672 168.686 17.3867 170.817 17.3867H174.324C176.448 17.3867 178.182 18.7672 178.182 20.4573V32.404C178.182 34.0489 176.501 35.4229 174.435 35.4681L170.7 35.481ZM172.134 19.18C171.545 19.1482 170.967 19.348 170.527 19.7359C170.086 20.1237 169.818 20.6682 169.781 21.2507V31.6105C169.818 32.193 170.086 32.7375 170.527 33.1254C170.967 33.5132 171.545 33.713 172.134 33.6812H173.001C173.591 33.7147 174.17 33.5158 174.612 33.1277C175.054 32.7397 175.323 32.1942 175.36 31.6105V21.2378C175.323 20.6541 175.054 20.1086 174.612 19.7206C174.17 19.3326 173.591 19.1336 173.001 19.1671L172.134 19.18Z" fill="white"/>
<path d="M156.42 35.48V17.418H159.073V18.9597C159.073 18.9597 159.679 18.5533 160.167 18.3146C161.352 17.7386 162.654 17.4406 163.974 17.4438H165.049V19.2951H164.841C164.31 19.3088 163.781 19.3562 163.257 19.437C160.858 19.8499 159.235 21.0175 159.235 23.0365V35.48H156.42Z" fill="white"/>
<path d="M96.7196 43.2993V40.1191H98.4141C101.119 40.0739 102.514 38.9708 102.566 36.8357V35.481H98.6748C98.1402 35.5052 97.606 35.4239 97.1034 35.2417C96.6008 35.0595 96.1398 34.7802 95.7473 34.42C95.3549 34.0598 95.0388 33.6259 94.8174 33.1435C94.5961 32.6612 94.4739 32.1401 94.458 31.6106V21.3604C94.4955 20.2864 94.9592 19.2704 95.7485 18.5325C96.5379 17.7947 97.5894 17.3946 98.6748 17.419H106.235V36.6808C106.15 40.6351 102.976 43.2993 98.3555 43.2993H96.7196ZM99.9458 20.0767C99.4853 20.0681 99.0402 20.2404 98.7079 20.556C98.3756 20.8716 98.1833 21.3047 98.173 21.7604V31.0687C98.1833 31.5244 98.3756 31.9575 98.7079 32.2731C99.0402 32.5887 99.4853 32.761 99.9458 32.7524H102.553V20.0703L99.9458 20.0767Z" fill="white"/>
<path d="M56.6631 35.4803V11.6836H60.4041V17.3796H64.3146C66.6544 17.3796 68.5575 18.9342 68.5575 20.8501V31.9969C68.5575 33.9321 66.6544 35.4674 64.3146 35.4674L56.6631 35.4803ZM60.4041 32.7581H63.0111C63.4476 32.7885 63.8786 32.648 64.2115 32.3668C64.5443 32.0857 64.7522 31.6864 64.7904 31.255V21.6048C64.7522 21.1734 64.5443 20.7741 64.2115 20.493C63.8786 20.2118 63.4476 20.0714 63.0111 20.1018H60.4041V32.7581Z" fill="white"/>
<path d="M119.309 35.4803V21.6177C119.271 21.1863 119.063 20.787 118.73 20.5059C118.397 20.2247 117.966 20.0843 117.53 20.1147H114.923V35.4803H111.182V11.6836H114.923V17.4183H118.833C121.173 17.4183 123.076 18.9729 123.076 20.8888V35.4803H119.309Z" fill="white"/>
<path d="M89.5117 35.4681V17.3867H85.7642V35.4681H89.5117Z" fill="white"/>
<path d="M89.5117 14.7129V11.6875H85.7707V14.7129H89.5117Z" fill="white"/>
<path d="M135.388 35.4803C131.093 35.4803 129.301 33.9127 129.21 30.1455V20.1018H126.022V17.3796H129.21V11.6836H132.957V17.3796H136.144V20.1018H132.957V30.5132C132.996 32.0614 133.609 32.5968 135.401 32.6484H136.144V35.4803H135.388Z" fill="white"/>
<path d="M23.2349 -0.000680657C20.011 -0.00773281 16.8211 0.651396 13.8693 1.93453V10.8752H33.4218C34.6088 10.8769 35.7466 11.3444 36.586 12.1751C37.4253 13.0058 37.8976 14.132 37.8993 15.3068V32.2013C37.8993 33.3772 37.4278 34.5051 36.5883 35.3372C35.7488 36.1693 34.6099 36.6376 33.4218 36.6393H8.57055V5.15989C5.88836 7.31343 3.72669 10.0334 2.24377 13.1206C0.760861 16.2078 -0.00575991 19.5842 3.25823e-05 23.0025V45.9993H23.2349C26.3194 46.0504 29.3832 45.4933 32.2478 44.3604C35.1125 43.2275 37.7206 41.5415 39.9201 39.4007C42.1196 37.2599 43.8665 34.7071 45.059 31.8912C46.2514 29.0753 46.8655 26.0526 46.8655 22.9993C46.8655 19.9461 46.2514 16.9234 45.059 14.1075C43.8665 11.2916 42.1196 8.73878 39.9201 6.59796C37.7206 4.45714 35.1125 2.77113 32.2478 1.63823C29.3832 0.505322 26.3194 -0.0518083 23.2349 -0.000680657Z" fill="white"/>
<path d="M29.1526 10.8774V15.8702H16.1176C15.7989 15.8685 15.4831 15.9292 15.1882 16.0487C14.8934 16.1682 14.6253 16.3442 14.3993 16.5666C14.1734 16.789 13.9942 17.0534 13.8718 17.3446C13.7495 17.6358 13.6865 17.9481 13.6865 18.2634V29.2296C13.6865 29.8644 13.9413 30.4731 14.3947 30.9219C14.8482 31.3707 15.4632 31.6228 16.1045 31.6228H32.7698V10.8516L29.1526 10.8774ZM29.1526 25.1592V28.4233H18.164C17.9203 28.4233 17.6866 28.3275 17.5142 28.1569C17.3419 27.9863 17.2451 27.755 17.2451 27.5137V20.0438C17.2451 19.8026 17.3419 19.5712 17.5142 19.4007C17.6866 19.2301 17.9203 19.1343 18.164 19.1343H28.2336C28.4773 19.1343 28.7111 19.2301 28.8834 19.4007C29.0557 19.5712 29.1526 19.8026 29.1526 20.0438V25.1592Z" fill="white"/>
<path d="M73.4395 35.479V17.417H77.0241V18.4943L77.3304 18.3201C78.5406 17.7089 79.8823 17.3968 81.2409 17.4106H82.7921V20.0941H82.1208C81.9122 20.0941 81.5668 20.0941 81.078 20.1586C79.1227 20.3457 77.1675 21.352 77.1675 23.3388V35.479H73.4395Z" fill="white"/>
</g>
<defs>
<clipPath id="clip0">
<rect width="194" height="46" fill="white"/>
</clipPath>
</defs>
</svg>
